<?xml version="1.0" encoding="UTF-8"?>
<svg width="100px" height="19px" viewBox="0 0 100 19" version="1.1" xmlns="http://www.w3.org/2000/svg" xmlns:xlink="http://www.w3.org/1999/xlink">
    <title>Artboard</title>
    <g id="Artboard" stroke="none" stroke-width="1" fill="none" fill-rule="evenodd">
        <g id="watchwork-logo" fill="#151515" fill-rule="nonzero">
            <g id="Group" transform="translate(9.496298, 9.477900) rotate(45.000000) translate(-9.496298, -9.477900) translate(2.996298, 2.977900)">
                <path d="M0.137265792,3.61291841 L4.28676491,3.61291841 C7.17042698,3.61291841 9.50809696,5.95058841 9.50809696,8.83425045 L9.50809696,12.9837496 L12.988985,12.9837496 L12.988985,8.83425045 C12.988985,4.02814702 9.09286834,0.132030381 4.28676491,0.132030381 L0.137265792,0.132030381 L0.137265792,3.61291841 Z" id="Rectangle" transform="translate(6.563125, 6.557890) rotate(-90.000000) translate(-6.563125, -6.557890) "></path>
                <path d="M9.50809696,4.5492898 C9.50809696,7.28507176 7.29030748,9.50286124 4.55452553,9.50286124 L4.55452553,12.9837492 C9.21274884,12.9837492 12.988985,9.20751312 12.988985,4.5492898 L9.50809696,4.5492898 Z" id="Path-2"></path>
            </g>
        </g>
        <path d="M32.6959778,14 L34.9359778,5.978 L37.1759778,14 L38.0719778,14 L40.7319778,4.662 L39.8359778,4.662 L37.5819778,12.88 L35.2999778,4.662 L34.5719778,4.662 L32.2759778,12.88 L30.0219778,4.662 L29.1259778,4.662 L31.7999778,14 L32.6959778,14 Z M43.5739778,14.168 C44.5119778,14.168 45.2679778,13.86 45.8699778,13.202 L45.8699778,14 L46.5979778,14 L46.5979778,9.24 C46.5979778,7.728 45.5059778,7.07 44.1339778,7.07 C43.0139778,7.07 42.2299778,7.448 41.5299778,8.204 L41.9359778,8.708 C42.5519778,8.008 43.2099778,7.714 44.0499778,7.714 C45.0579778,7.714 45.8699778,8.26 45.8699778,9.268 L45.8699778,10.64 C45.2819778,9.982 44.5119778,9.674 43.5739778,9.674 C42.3979778,9.674 41.2079778,10.444 41.2079778,11.914 C41.2079778,13.37 42.4119778,14.168 43.5739778,14.168 Z M43.8259778,13.594 C42.7059778,13.594 41.9779778,12.88 41.9779778,11.928 C41.9779778,10.962 42.7059778,10.248 43.8259778,10.248 C44.6379778,10.248 45.3939778,10.57 45.8699778,11.186 L45.8699778,12.67 C45.3939778,13.286 44.6379778,13.594 43.8259778,13.594 Z M50.3359778,14.168 C50.8959778,14.168 51.2179778,14 51.4839778,13.748 L51.2039778,13.188 C51.0499778,13.356 50.7699778,13.51 50.4479778,13.51 C49.9719778,13.51 49.7479778,13.132 49.7479778,12.586 L49.7479778,7.882 L51.1199778,7.882 L51.1199778,7.238 L49.7479778,7.238 L49.7479778,5.39 L49.0059778,5.39 L49.0059778,7.238 L47.8859778,7.238 L47.8859778,7.882 L49.0059778,7.882 L49.0059778,12.698 C49.0059778,13.622 49.4399778,14.168 50.3359778,14.168 Z M55.6139778,14.168 C56.7899778,14.168 57.4619778,13.706 58.0079778,13.006 L57.5039778,12.558 C57.0139778,13.23 56.3979778,13.51 55.6559778,13.51 C54.0739778,13.51 53.1079778,12.236 53.1079778,10.612 C53.1079778,8.988 54.0739778,7.728 55.6559778,7.728 C56.3979778,7.728 57.0139778,7.994 57.5039778,8.666 L58.0079778,8.218 C57.4619778,7.532 56.7899778,7.07 55.6139778,7.07 C53.6259778,7.07 52.3239778,8.638 52.3239778,10.612 C52.3239778,12.586 53.6259778,14.168 55.6139778,14.168 Z M60.3599778,14 L60.3599778,8.89 C60.7939778,8.274 61.6899778,7.728 62.5579778,7.728 C63.5379778,7.728 64.1959778,8.092 64.1959778,9.394 L64.1959778,14 L64.9239778,14 L64.9239778,9.24 C64.9239778,7.714 64.1679778,7.07 62.7959778,7.07 C61.8159778,7.07 60.8499778,7.672 60.3599778,8.26 L60.3599778,4.662 L59.6319778,4.662 L59.6319778,14 L60.3599778,14 Z M69.1939778,14 L71.0979778,8.218 L72.9879778,14 L73.6879778,14 L75.8859778,7.238 L75.1019778,7.238 L73.3099778,12.978 L71.4059778,7.238 L70.7759778,7.238 L68.8719778,12.978 L67.0799778,7.238 L66.2959778,7.238 L68.4939778,14 L69.1939778,14 Z M80.1139778,14.168 C82.1159778,14.168 83.3759778,12.586 83.3759778,10.612 C83.3759778,8.638 82.1159778,7.07 80.1139778,7.07 C78.1399778,7.07 76.8659778,8.638 76.8659778,10.612 C76.8659778,12.586 78.1399778,14.168 80.1139778,14.168 Z M80.1139778,13.51 C78.5459778,13.51 77.6499778,12.124 77.6499778,10.612 C77.6499778,9.114 78.5459778,7.728 80.1139778,7.728 C81.7099778,7.728 82.5919778,9.114 82.5919778,10.612 C82.5919778,12.124 81.7099778,13.51 80.1139778,13.51 Z M85.9799778,14 L85.9799778,9.072 C86.2879778,8.484 87.2119778,7.868 87.8979778,7.868 C88.0379778,7.868 88.1359778,7.868 88.2619778,7.896 L88.2619778,7.098 C87.3239778,7.098 86.5539778,7.644 85.9799778,8.4 L85.9799778,7.238 L85.2519778,7.238 L85.2519778,14 L85.9799778,14 Z M90.4179778,14 L90.4179778,11.97 L91.6779778,10.78 L94.3799778,14 L95.3599778,14 L92.2239778,10.29 L95.3739778,7.238 L94.4079778,7.238 L90.4179778,11.102 L90.4179778,4.662 L89.6899778,4.662 L89.6899778,14 L90.4179778,14 Z" id="Watchwork" fill="#000000" fill-rule="nonzero"></path>
        <line x1="23.8714889" y1="3.67836189" x2="23.8714889" y2="15.5" id="Path" stroke="#CDCDCD" stroke-width="0.5"></line>
    </g>
</svg>